<svg id="fi_15640218" viewBox="0 0 32 32" xmlns="http://www.w3.org/2000/svg" data-name="Layer 2"><path d="m16.479 21.236h1.73v1.731h-1.73z"></path><path d="m14.497 21.236h1.731v1.731h-1.731z"></path><path d="m14.497 23.217h1.731v1.731h-1.731z"></path><path d="m16.479 23.217h1.73v1.731h-1.73z"></path><path d="m21.35 17.071h1.104v1.105h-1.104z"></path><path d="m19.994 15.717h1.105v1.104h-1.105z"></path><path d="m19.994 17.071h1.105v1.105h-1.105z"></path><path d="m19.322 15.1v3.825h8.09v-2.395l-8.295-3.872-5.555 2.592v1.529l6.183-2.879.04-.019a.123.123 0 0 1 .1 0 .118.118 0 0 1 .07.065l.279.6a.124.124 0 0 1 -.06.166zm1.9.367h1.354a.125.125 0 0 1 .125.125v2.708a.125.125 0 0 1 -.125.125h-2.71a.125.125 0 0 1 -.125-.125v-2.708a.125.125 0 0 1 .125-.125z"></path><path d="m21.35 15.717h1.104v1.104h-1.104z"></path><path d="m19.064 5.887a.123.123 0 0 1 .106 0l3.93 1.827.174-.364-4.157-1.942-6.074 2.833.175.373z"></path><path d="m13.562 8.729v2.253l5.5-2.565a.123.123 0 0 1 .106 0l3.341 1.56v-2.26l-3.392-1.579z"></path><path d="m19.064 9.146a.144.144 0 0 1 .053-.011.14.14 0 0 1 .053.011l5.99 2.8a.118.118 0 0 1 .07.033l.336.157.175-.373-6.624-3.095-6.074 2.832.175.374z"></path><path d="m13.562 11.989v2.249l5.5-2.564a.121.121 0 0 1 .105 0l5.848 2.726v-2.248l-5.898-2.752z"></path><path d="m19.062 12.4a.12.12 0 0 1 .052-.012.124.124 0 0 1 .053.012l9.057 4.227.174-.373-9.284-4.333-6.074 2.837.175.373z"></path><path d="m8.832 19.712.003-.005 4.843-2.255 6.271-2.925-.172-.37-6.287 2.936h-.009l-5.668 2.642.173.371z"></path><path d="m12.377 21.066-.173-.368-3.264 1.525-.011-.001-6.219 2.905.172.364.845-.394.002-.003 6.157-2.867z"></path><path d="m3.907 25.289v1.313h7.46v-4.789l-1.482.69z"></path><path d="m19.072 15.216-5.422 2.525-4.637 2.159v2l3.2-1.493a.116.116 0 0 1 .1 0 .123.123 0 0 1 .073.065l.28.6a.126.126 0 0 1 -.06.166l-.979.457v4.905h1.69v-7.55a.125.125 0 0 1 .126-.125h5.634z"></path><path d="m13.563 26.226h11.92v.379h-11.92z"></path><path d="m26.836 23.494h1.731v3.111h-1.731z"></path><path d="m26.836 19.937h1.731v.466h-1.731z"></path><path d="m26.836 22.227h1.731v.466h-1.731z"></path><path d="m26.836 21.082h1.731v.466h-1.731z"></path><path d="m27.537 19.175h-13.975v1.23h12.045a.124.124 0 0 1 .125.125v6.075h.854v-3.236a.125.125 0 0 1 .125-.125h1.981a.124.124 0 0 1 .125.125v3.236h.515v-7.43zm1.28 3.642a.124.124 0 0 1 -.125.125h-1.981a.125.125 0 0 1 -.125-.125v-.717a.125.125 0 0 1 .125-.125h1.981a.124.124 0 0 1 .125.125zm0-1.145a.124.124 0 0 1 -.125.125h-1.981a.125.125 0 0 1 -.125-.125v-.715a.125.125 0 0 1 .125-.125h1.981a.124.124 0 0 1 .125.125zm0-1.145a.124.124 0 0 1 -.125.125h-1.981a.125.125 0 0 1 -.125-.125v-.715a.125.125 0 0 1 .125-.125h1.981a.124.124 0 0 1 .125.125z"></path></svg>