<svg height="512" viewBox="0 0 59 58" width="512" xmlns="http://www.w3.org/2000/svg" id="fi_3136852"><g id="Page-1" fill="none" fill-rule="evenodd"><g id="015---Landscape-Planning" fill="rgb(0,0,0)" fill-rule="nonzero"><path id="Shape" d="m24.08 51.811c-.2654657-.021151-.5282285.0657593-.7287265.2410303-.2004981.1752711-.3217509.424059-.3362735.6899697-.0365652.5508493.3801717 1.02712.931 1.064 1.944.131 3.761.194 5.554.194 12.409 0 21.2-2.746 24.407-5.467.4213932-.3576044.4731043-.9891067.1155-1.4105-.3576044-.4213932-.9891067-.4731043-1.4105-.1155-2.923 2.481-11.801 4.993-23.112 4.993-1.748 0-3.521-.062-5.42-.189z"></path><path id="Shape" d="m19.254 51.286c-1.105-.163-2.182-.353-3.2-.565-.5356176-.1006499-1.0531999.246122-1.1638528.7797629-.1106528.5336409.2263754 1.0576201.7578528 1.1782371 1.057.219 2.171.416 3.314.586.04904.0067788.0984939.0101203.148.01.5229618-.0015101.956442-.405708.9944656-.9272878.0380237-.5215798-.3322521-.9843723-.8494656-1.0617122z"></path><path id="Shape" d="m1.88 22.88c.56171981-.5632738 1.32450865-.8798486 2.12-.8798486s1.55828019.3165748 2.12.8798486l.88.88.88-.88c.75997232-.7582096 1.86716058-1.0525507 2.9033262-.7718365 1.0361657.2807142 1.8433627 1.0936936 2.1166738 2.1318365.07-.7.1-1.45.1-2.24-.016859-3.0235968-.6073025-6.0165346-1.74-8.82 0-.01-.01-.01-.01-.02-1.019208-2.6034159-2.45828841-5.02215192-4.26-7.16-3.7510692 4.5010467-5.86297645 10.1422012-5.99 16 0 .79.03 1.54.1 2.24.13317309-.5151445.40260535-.9849238.78-1.36z"></path><path id="Shape" d="m55.2 50.057c-4.187 3.555-14.516 5.943-25.7 5.943-16.206 0-27.5-4.743-27.5-9 0-1.59 1.469-3.157 4-4.526v1.526c0 .5522847.44771525 1 1 1s1-.4477153 1-1v-2.467c2.899763-1.1593184 5.9177465-1.9976472 9-2.5v2.967c0 .5522847.4477153 1 1 1s1-.4477153 1-1v-3.276c.589-.083 1.184-.162 1.792-.23.548971-.0618559.9438559-.557029.882-1.106s-.557029-.9438559-1.106-.882c-.535.061-1.05.133-1.568.2v-6.806c3.19-.6 5-4.13 5-9.9-.1202522-5.8626178-2.2408051-11.50801633-6.01-16-2.1280687 2.57026078-3.7530541 5.51830327-4.79 8.69 1.1729701 2.9646186 1.7833834 6.1218115 1.8 9.31.0435344 2.0918882-.2433273 4.1775416-.85 6.18.7103914.8995159 1.7230712 1.510677 2.85 1.72v7.111c-3.0721048.4772424-6.0876488 1.2659747-9 2.354v-10.951l2.707-2.707c.3789722-.3923789.3735524-1.0160848-.0121814-1.4018186s-1.00943971-.3911536-1.4018186-.0121814l-2.293 2.293-2.293-2.293c-.39237889-.3789722-1.01608478-.3735524-1.40181858.0121814-.38573379.3857338-.39115363 1.0094397-.01218142 1.4018186l2.707 2.707v11.819c-3.821 1.858-6 4.197-6 6.767 0 6.885 15 11 29.5 11 11.8 0 22.4-2.519 27-6.417.4213932-.3589851.471985-.9916067.113-1.413-.3589851-.4213932-.9916067-.4719851-1.413-.113z"></path><path id="Shape" d="m37 17.76c0 .893164.4764973 1.7184816 1.25 2.1650636s1.7264973.446582 2.5 0 1.25-1.2718996 1.25-2.1650636c-.0016833-.25872-.0455942-.5154299-.13-.76h-4.74c-.0835879.244779-.1274759.5013548-.13.76z"></path><rect id="Rectangle-path" height="7" rx="1" width="7" x="36" y="8"></rect><path id="Shape" d="m20.61 47.92c.1239664.0504489.2561835.0775704.39.08.4012802-.000327.7635008-.2404951.92-.61l2.2-5.19 3.64-1.56c.1119196-.0501419.2190303-.1103917.32-.18.3136109-.2117182.5627472-.5058373.72-.85l.5-1.12 6-13.53c-1.9183001-1.0901127-3.3328239-2.8887838-3.94-5.01l-11.28 26.66c-.1057428.2437535-.1091738.5197598-.009523.7660666.0996508.2463067.2940357.4422806.539523.5439334z"></path><path id="Shape" d="m41 1.5c0-.82842712-.6715729-1.5-1.5-1.5s-1.5.67157288-1.5 1.5v4.5h3z"></path><path id="Shape" d="m36.99 23.58c1.6072581.665029 3.4127419.665029 5.02 0 1.7099322-.7157447 3.0288957-2.1330838 3.62-3.89.2495654-.675266.374917-1.3901091.37-2.11.0007121-1.2292562-.3496986-2.4331425-1.01-3.47-.0315764.9082966-.4774281 1.7520984-1.21 2.29.14429.4389692.2185332.8979271.22 1.36.0116822 1.7806772-1.0277678 3.4007566-2.651289 4.1322802-1.6235212.7315235-3.5257039.4368802-4.8518312-.7515365-1.3261272-1.1884167-1.8267338-3.047047-1.2768798-4.7407437-.7325719-.5379016-1.1784236-1.3817034-1.21-2.29-.6603014 1.0368575-1.0107121 2.2407438-1.01 3.47-.006016.7093373.1159355 1.4139459.36 2.08.5903211 1.7676801 1.9128106 3.195823 3.63 3.92z"></path><path id="Shape" d="m58.92 46.61-11.28-26.66c-.6097831 2.1224217-2.0232639 3.9233542-3.94 5.02l6.5 14.64c.2089389.4625175.5835503.8299935 1.05 1.03l3.63 1.56 2.2 5.19c.1564992.3695049.5187198.609673.92.61.1338165-.0024296.2660336-.0295511.39-.08.5077826-.2157051.7449432-.8018944.53-1.31z"></path></g></g></svg>