<svg version="1.1" id="fi_944136" xmlns="http://www.w3.org/2000/svg" xmlns:xlink="http://www.w3.org/1999/xlink" x="0px" y="0px" viewBox="0 0 512 512" style="enable-background:new 0 0 512 512;" xml:space="preserve"> <g> 	<g> 		<path d="M257,131.069l-94-54.271c-3.094-1.787-6.906-1.787-10,0l-94,54.271c-3.094,1.786-5,5.088-5,8.66V248.27 			c0,3.572,1.906,6.874,5,8.66l94,54.271c1.547,0.894,3.273,1.34,5,1.34s3.453-0.446,5-1.34l94-54.271c3.094-1.785,5-5.087,5-8.659 			V139.729C262,136.157,260.094,132.855,257,131.069z M148,285.222l-64-36.951l20.278-11.707c4.784-2.761,6.422-8.877,3.66-13.661 			c-2.76-4.782-8.874-6.421-13.66-3.66L74,230.95v-73.9L138,194l-12.224,7.057c-4.783,2.762-6.422,8.877-3.66,13.66 			c1.853,3.208,5.213,5.002,8.67,5.002c1.696,0,3.416-0.433,4.99-1.342L148,211.321V285.222z M158,152.825c-5.522,0-10,4.478-10,10 			v13.855l-64-36.95l64-36.951v20.198c0,5.522,4.478,10,10,10c5.522,0,10-4.478,10-10v-20.198l64,36.951l-64,36.95v-13.855 			C168,157.303,163.522,152.825,158,152.825z M242,230.95l-14.957-8.636c-4.784-2.761-10.898-1.122-13.66,3.66 			c-2.762,4.783-1.123,10.898,3.66,13.66L232,248.271l-64,36.951v-73.901l16.826,9.715c1.575,0.909,3.294,1.342,4.99,1.342 			c3.456,0,6.818-1.794,8.67-5.002c2.762-4.783,1.123-10.898-3.66-13.66L178,194l64-36.95V230.95z"></path> 	</g> </g> <g> 	<g> 		<path d="M507,280.298L389,212.17V201c0-1.93,1.57-3.5,3.5-3.5h21c12.958,0,23.5-10.542,23.5-23.5v-10.877l19.842-14.283 			c2.611-1.88,4.158-4.899,4.158-8.116V117h14c5.522,0,10-4.478,10-10V60h17c5.522,0,10-4.478,10-10s-4.478-10-10-10h-17V10 			c0-5.522-4.478-10-10-10h-96c-5.522,0-10,4.478-10,10v30h-53V10c0-5.522-4.478-10-10-10H10C4.478,0,0,4.478,0,10v368 			c0,5.522,4.478,10,10,10h236v42.986c0,3.572,1.906,6.874,5,8.66l123,71.014c1.547,0.894,3.273,1.34,5,1.34s3.453-0.446,5-1.34 			l123-71.014c3.094-1.786,5-5.088,5-8.66V288.958C512,285.386,510.094,282.084,507,280.298z M441,135.601l-14,10.078l-14-10.078 			V117h28V135.601z M389,20h76v77h-14h-48h-14V20z M247.331,283.534c-0.948,1.649-1.362,3.454-1.318,5.225 			c-0.001,0.067-0.013,0.132-0.013,0.198V368H20V20h276v20H194c-5.522,0-10,4.478-10,10s4.478,10,10,10h102v157.495 			c0,5.522,4.478,10,10,10c5.522,0,10-4.478,10-10V60h53v47c0,5.522,4.478,10,10,10h14v23.724c0,3.217,1.547,6.236,4.158,8.116 			L417,163.123V174c0,1.93-1.57,3.5-3.5,3.5h-21c-12.958,0-23.5,10.542-23.5,23.5v11.17l-115.46,66.661 			C251.011,279.473,248.734,281.093,247.331,283.534z M369,484.68l-103-59.467V305.802l103,59.217V484.68z M492,425.213L389,484.68 			V365.019l20.328-11.687c4.788-2.752,6.438-8.865,3.685-13.653c-2.752-4.786-8.863-6.438-13.653-3.685L379,347.699L276.413,288.72 			L379,229.49l102.587,59.229l-14.969,8.606c-4.788,2.752-6.438,8.865-3.685,13.653c1.85,3.217,5.216,5.018,8.679,5.018 			c1.69,0,3.403-0.43,4.975-1.333L492,305.802V425.213z"></path> 	</g> </g> <g> 	<g> 		<path d="M443.87,318.93c-1.86-1.861-4.431-2.93-7.07-2.93c-2.63,0-5.21,1.069-7.07,2.93c-1.859,1.86-2.93,4.44-2.93,7.07 			s1.07,5.21,2.93,7.069c1.87,1.86,4.44,2.931,7.07,2.931c2.64,0,5.21-1.07,7.07-2.931c1.87-1.859,2.93-4.439,2.93-7.069 			S445.74,320.79,443.87,318.93z"></path> 	</g> </g> <g> 	<g> 		<path d="M164.969,42.93c-1.86-1.86-4.439-2.93-7.07-2.93c-2.63,0-5.21,1.069-7.069,2.93c-1.86,1.86-2.931,4.44-2.931,7.07 			s1.07,5.21,2.931,7.069c1.859,1.861,4.44,2.931,7.069,2.931c2.631,0,5.21-1.07,7.07-2.931c1.87-1.859,2.93-4.439,2.93-7.069 			S166.839,44.79,164.969,42.93z"></path> 	</g> </g> <g> </g> <g> </g> <g> </g> <g> </g> <g> </g> <g> </g> <g> </g> <g> </g> <g> </g> <g> </g> <g> </g> <g> </g> <g> </g> <g> </g> <g> </g> </svg>